<svg xmlns="http://www.w3.org/2000/svg" viewBox="0 0 478.75 271.13"><defs><style>.cls-1,.cls-2{fill:#003767;}.cls-2{fill-rule:evenodd;}</style></defs><g id="Layer_2" data-name="Layer 2"><g id="Layer_1-2" data-name="Layer 1"><path class="cls-1" d="M201.75,182.51a4.37,4.37,0,0,1-4.58-3.62c-1.49,2.52-4.19,3.79-8.15,3.79s-6.6-2.53-6.6-5.73c0-4.83,4.94-7.75,14.22-7.75h.3v-5.8c0-2.81-1.21-4.13-4.43-4.13s-4.93,2-4.93,2.81c0,.47,1.61.92,1.61,2.53a2.42,2.42,0,0,1-2.46,2.7,2.52,2.52,0,0,1-2.64-2.7c0-3.21,3.38-6.14,8.54-6.14a10.56,10.56,0,0,1,6.42,2c2.19,1.6,2.36,2.92,2.36,5.51v11.53c0,2.47.58,3.61,1.72,3.61s1.84-.75,2.92-2.18l.64.58C205.08,181.53,203.65,182.51,201.75,182.51Zm-4.81-12.45c-.64-.06-1.21-.06-1.73-.06-5.27,0-7.8,2-7.8,6.3,0,3.28,1.5,5.11,4,5.11a6.29,6.29,0,0,0,5.51-3.61Z"/><path class="cls-1" d="M206.8,181.19h3.28V160H206.8v-.8h2.75a15.34,15.34,0,0,0,5.34-.69v5.11c2.12-3.45,4.7-5.11,8.09-5.11,4.47,0,7.28,2.7,7.28,7.17v15.55h3.33v.8H222.28v-.8h3.22V164c0-3-.58-4.41-3.16-4.41-3,0-5.39,1.83-7.45,5.62v16H218v.8H206.8Z"/><path class="cls-1" d="M246.55,182.68c-6.3,0-10.91-4.82-10.91-12.16,0-6.77,5-12,10.39-12,3.27,0,6,1.84,7.63,5.28v-19h-3.27V144h2.76a10.31,10.31,0,0,0,5.34-1.38v38.55h3.32v.8h-8.09V178.2C251.77,181.19,249.48,182.68,246.55,182.68Zm-.29-.86c3.33,0,5.85-2,7.4-5.68V165.87c-1.49-4.07-4.18-6.3-7.28-6.3-3.66,0-5.51,2.58-5.51,7.68v6.6C240.87,179.29,242.31,181.82,246.26,181.82Z"/><path class="cls-2" d="M154.65,83.9h-17V79.45c5.13-.56,10.69-.93,16.72-1h.29C154.56,78.34,154.65,83.9,154.65,83.9ZM1.56,201.4h17v17h-17ZM21,218.4v-17h5a150.37,150.37,0,0,0,2.23,17Zm34.58-17h1.88v10.75Q56.26,206.84,55.58,201.4Zm4.3,17v-17h17v17Zm19.44,0v-17h17v17Zm19.44,0v-17h17v17Zm19.44,0v-17h17v17Zm19.44-17h17v17h-17ZM1.56,199.19v-17h17v17Zm19.44,0v-17h4.78q-.21,3.47-.21,6.54c0,3.42.09,6.91.31,10.47Zm33.63-17h2.83v17H55.32a120.11,120.11,0,0,1-.71-13Zm5.25,17v-17h17v17Zm19.44,0v-17h17v17Zm19.44,0v-17h17v17Zm19.44,0v-17h17v17Zm19.44,0v-17h17v17ZM1.56,180V163h17v17ZM21,180V163h7.49a128.16,128.16,0,0,0-2.55,17Zm34.76-17h1.7v17H54.68C54.81,174.17,55.15,168.49,55.76,163Zm4.12,17V163h17v17Zm19.44,0V163h17v17Zm19.44,0V163h17v17Zm19.44,0V163h17v17Zm19.44,0V163h17v17ZM1.56,160.76v-17h17v17Zm19.44,0v-17H34.17a135.62,135.62,0,0,0-5.19,17Zm36.46-9.09v9.09H56C56.39,157.68,56.88,154.65,57.46,151.67Zm2.42,9.09v-17h17v17Zm19.44,0v-17h17v17Zm19.44,0v-17h17v17Zm19.44,0v-17h17v17Zm19.44,0v-17h17v17ZM1.56,141.55v-17h17v17Zm19.44,0v-17H38v10.12c-1.08,2.3-2.07,4.6-3,6.89Zm19.45-11.8v-5.21h2.86Q41.79,127.12,40.45,129.75Zm26.18-5.21H76.89v17h-17A93.15,93.15,0,0,1,66.63,124.54Zm12.69,17v-17h17v17Zm19.44,0v-17h17v17Zm19.44,0v-17h17v17Zm19.44,0v-17h17v17ZM1.56,122.33v-17h17v17Zm19.44,0v-17H38v17Zm19.45-17H57.27a118.9,118.9,0,0,0-12.63,17H40.45Zm36.44,3.84v13.17H67.82A85.15,85.15,0,0,1,76.89,109.16Zm2.43,13.17v-16l1-1.05h16v17Zm19.44,0v-17h17v17Zm19.44,0v-17h17v17Zm19.44,0v-17h17v17ZM1.56,103.12v-17h17v17Zm19.44,0v-17H38v17Zm19.45,0v-17h17v17Zm19.43-.62V86.11h17v1.65a115.62,115.62,0,0,0-15.18,12.88ZM96.32,92.14v11H82.43l1.22-1.19A70.37,70.37,0,0,1,96.32,92.14Zm2.44,11V90.74a78.61,78.61,0,0,1,10-4.63h7v17Zm19.44,0v-17h17v17Zm19.44,0v-17h17v17ZM1.56,66.89h17v17h-17ZM21,83.9v-17H38v17Zm19.45,0v-17h17v17Zm19.43,0v-17h17v17Zm19.44,0v-17h17V77a107.58,107.58,0,0,0-13.56,7Zm36.45-.17-.59.17ZM98.76,76V66.89h17v3.72A123.68,123.68,0,0,0,98.76,76Zm19.44-5.9V66.89h17C129.13,68,123.48,68.89,118.2,70.05Zm0,13.85V83a124.72,124.72,0,0,1,17-3.3V83.9Z"/><path class="cls-1" d="M273.8,201.93h7V143.74h-7v-1.29h23.78c15.33,0,23.22,6,23.22,16.71,0,10.55-8.35,17.71-20.74,17.71a34.38,34.38,0,0,1-10.19-1.66v26.72h6.6v1.28H273.8Zm16.07-28.37a27.34,27.34,0,0,0,8.63,1.65c8.08,0,13.49-5.78,13.49-15.23,0-11-6.51-16.43-19.55-16.43-.82,0-1.64.09-2.57.09Z"/><path class="cls-1" d="M330.8,171.18a16.76,16.76,0,0,1,12.31-5.6c9.54,0,17.8,8.9,17.8,19.36a20,20,0,0,1-5.6,13.77,16.15,16.15,0,0,1-12.2,5.51,16.66,16.66,0,0,1-12.31-5.51,19.72,19.72,0,0,1,0-27.53Zm12.31,31.75c6.6,0,9.54-4,9.54-12.47V179.35c0-8.45-2.94-12.48-9.54-12.48s-9.65,4-9.65,12.48v11.11C333.46,198.9,336.49,202.93,343.11,202.93Z"/><path class="cls-1" d="M364.12,201.93h5.24V143.74h-5.24v-1.29h4.41a15.7,15.7,0,0,0,8.54-2.2v61.68h5v1.28h-18Z"/><path class="cls-2" d="M392.84,151.25a4,4,0,0,1,4,4.11,4,4,0,0,1-4,4,4,4,0,0,1-4-4A4.08,4.08,0,0,1,392.84,151.25Z"/><path class="cls-1" d="M384.5,168v-1.28h4.4c3.85,0,6.7-.37,8.53-1.11v36.35h5.05v1.28h-18v-1.28h5.23V168Z"/><path class="cls-1" d="M424.5,204.31c-10.63,0-18-7.44-18-18.27,0-11.65,8.53-20.55,19-20.55,6.88,0,11.93,3.86,11.93,8.36A4.49,4.49,0,0,1,433,178a4.12,4.12,0,0,1-4-4.21c0-2.67,2.49-4.33,2.49-4.69,0-.74-2.31-2.57-5.88-2.57a10.62,10.62,0,0,0-8.08,3.3c-2.66,3-2.84,6.79-2.84,12v5.88c0,4.87.18,8.63,2.48,11.66,1.83,2.38,4.22,3.3,7.61,3.3,6.88,0,11-3.95,11.84-11.66H438C437.18,199.36,431.94,204.31,424.5,204.31Z"/><path class="cls-1" d="M457.64,217.89c-1.83,5.79-3.85,8.18-8.17,8.18a4.41,4.41,0,0,1-4.5-4.6,4,4,0,0,1,3.95-4.12,3.88,3.88,0,0,1,3.86,4.12c0,.28-.1.64-.1,1.11,0,.09.1.18.28.18,2.39,0,4-6.06,6.61-18.18L443.78,168h-3.86v-1.28H457V168h-5.24l11.3,27,8.08-21.85a8.31,8.31,0,0,0,.72-3c0-2-2.28-2-7.52-2.1v-1.28h14.41V168h-.47c-2.84,0-4.39,2.29-6.32,7.34L463.88,197C460.85,205.14,459.39,212.2,457.64,217.89Z"/><path class="cls-1" d="M197.13,31.78a10.47,10.47,0,0,1,7.69-3.51c6,0,11.13,5.57,11.13,12.11a12.47,12.47,0,0,1-3.5,8.6,10.09,10.09,0,0,1-7.63,3.45A10.4,10.4,0,0,1,197.13,49a12.34,12.34,0,0,1,0-17.2Zm7.69,19.85c4.13,0,6-2.53,6-7.81V36.88c0-5.28-1.84-7.81-6-7.81s-6,2.53-6,7.81v6.94C198.79,49.1,200.69,51.63,204.82,51.63Z"/><path class="cls-1" d="M218,51h3.26V29.77H218V29h2.75a15,15,0,0,0,5.33-.69v5.12c2.13-3.45,4.71-5.12,8.09-5.12,4.48,0,7.29,2.7,7.29,7.18V51h3.33v.8H233.44V51h3.22V33.79c0-3.05-.57-4.43-3.16-4.43-3,0-5.39,1.84-7.46,5.63V51h3.16v.8H218Z"/><path class="cls-1" d="M179.62,125.24h6.79V67.05h-6.79V65.76h24c14.13,0,21.75,5.41,21.75,14.42,0,7.7-6.24,13.39-17.17,14.13,12.39,1.18,19,6.69,19,15.6,0,9.36-7.8,16.61-20.56,16.61H179.62Zm19.73-31.58c11.75,0,17.25-3.67,17.25-12.48,0-8.35-5.78-14-16.24-14H195.5V93.57C196.88,93.66,198.16,93.66,199.35,93.66Zm.09,31.58c12.12,0,18-4.68,18-15.6,0-9.92-6.61-15-19.55-15-.73,0-1.56.1-2.38.1v30.47Z"/><path class="cls-1" d="M256.16,91.28V90h4.4c3.86,0,6.71-.36,8.55-1.1v36.35h5.14v1.28H261.39v-8.17c-3.67,5.51-7.71,8.17-13.13,8.17-7.16,0-11.74-4.4-11.74-11.46V91.28h-5.24V90h4.41c3.86,0,6.7-.36,8.54-1.1V117.8c0,4.78,1.37,7,5.41,7,4.32,0,8.17-3,11.85-9V91.28Z"/><path class="cls-1" d="M295.26,127.62c-10.09,0-17.44-7.71-17.44-19.45,0-10.83,8-19.18,16.61-19.18,5.23,0,9.63,2.93,12.21,8.43V67.05h-5.23V65.76h4.4a16.5,16.5,0,0,0,8.54-2.2v61.68h5.32v1.28H306.73v-6C303.61,125.24,300,127.62,295.26,127.62Zm-.46-1.38c5.32,0,9.36-3.12,11.84-9.08V100.73C304.25,94.22,300,90.64,295,90.64c-5.87,0-8.81,4.13-8.81,12.3v10.55C286.17,122.21,288.46,126.24,294.8,126.24Z"/><path class="cls-1" d="M323.15,119.73c0-5,3-7.8,8.73-8.07-4.41-2.94-6.61-6.06-6.61-10.1,0-6.89,5.87-12.67,14.68-12.67a13.07,13.07,0,0,1,9.64,3.67,8.72,8.72,0,0,1,6.7-3.48c2.66,0,4.4,1.65,4.4,3.67a2.86,2.86,0,0,1-3.12,3c-2,0-3.38-1.28-3.38-2.66a3.7,3.7,0,0,1,1.19-2.66,8.68,8.68,0,0,0-4.87,2.94c2.29,2.75,3.39,5.41,3.39,8.26,0,7-6.51,12.57-14.13,12.57-2.94,0-5.6-1.38-8.26-1.38-3.85,0-6.51,2.22-6.51,4.6,0,3.39,3.2,3.67,9.91,3.67h7.71c11,0,15.79,1.47,15.79,11,0,9.92-7.71,17.34-19.55,17.34-11,0-17.35-4.85-17.35-11,0-3.76,2.93-7.52,8.71-10C326.09,128.08,323.15,124.32,323.15,119.73Zm13.78,8.44c-7.06,0-10.84,3.67-10.84,9.73s4.78,10.1,12.67,10.1c10.47,0,17.62-6.7,17.62-13.77,0-4.95-3.76-6.06-11.38-6.06Zm2.93-15.23c5.88,0,7.26-3.76,7.26-11.84,0-7.62-1.94-11.11-7.35-11.11-6,0-7.61,3.86-7.61,12.86C332.16,109.82,334.45,112.94,339.86,112.94Z"/><path class="cls-1" d="M371.43,115.23c0,7.53,2.66,10.92,9.18,10.92,6.33,0,11.29-4.31,13.22-11.84h1.37c-2.2,8.54-7.8,13.4-14.95,13.4-9.19,0-17.17-8.16-17.17-19.18,0-11.38,7.07-19.64,15.7-19.64,8.26,0,15.14,6.33,15.78,15.7H371.43Zm14.15-11.93V99c0-6-2.22-8.82-7.17-8.82-4.68,0-7,3.31-7,10.1v3Z"/><path class="cls-1" d="M414.48,125.7c3,0,5.41-1.84,6.51-5h1.38c-1.38,4.5-4.68,7-9.27,7a10.8,10.8,0,0,1-7.53-2.75c-1.83-1.75-2-3.76-2-6.15V91.28h-6.33V90c7.26,0,10.93-3.76,12.22-12.2h1.09V90h10.19v1.29H410.53V120.1C410.53,124,411.45,125.7,414.48,125.7Z"/><path class="cls-1" d="M177.54,268.64h7V210.46h-7v-1.29h23.77c15.33,0,23.22,6,23.22,16.7,0,10.55-8.36,17.72-20.74,17.72a34.62,34.62,0,0,1-10.18-1.65v26.7h6.6v1.29H177.54Zm16.07-28.36a27.22,27.22,0,0,0,8.61,1.66c8.08,0,13.51-5.79,13.51-15.24,0-11-6.53-16.43-19.56-16.43-.82,0-1.65.09-2.56.09Z"/><path class="cls-1" d="M226.22,268.64h5.24v-34h-5.24V233.4h4.41a24.74,24.74,0,0,0,8.54-1.1v9.54c2.57-6.42,5.77-9.54,10.09-9.54,3.58,0,5.87,2,5.87,4.77s-1.47,4.42-3.67,4.42a4.07,4.07,0,0,1-4.13-3.87,5.6,5.6,0,0,1,1.75-3.57,4.87,4.87,0,0,0-1.11-.19c-3.29,0-7,4.68-8.8,13.31v21.47h5v1.29h-18Z"/><path class="cls-2" d="M265.16,218a4,4,0,0,1,4,4.11,3.94,3.94,0,0,1-4,4,4,4,0,0,1-4-4A4.07,4.07,0,0,1,265.16,218Zm-8.35,16.84v-1.28h4.39c3.84,0,6.68-.36,8.5-1.1v36.21h5v1.29H256.81v-1.29H262V234.81Z"/><path class="cls-1" d="M283.77,237.9a16.67,16.67,0,0,1,12.3-5.6c9.53,0,17.8,8.91,17.8,19.36a20,20,0,0,1-5.6,13.77,16.13,16.13,0,0,1-12.2,5.51,16.61,16.61,0,0,1-12.3-5.51,19.72,19.72,0,0,1,0-27.53Zm12.3,31.76c6.61,0,9.53-4.05,9.53-12.49v-11.1c0-8.45-2.92-12.48-9.53-12.48s-9.64,4-9.64,12.48v11.1C286.43,265.61,289.46,269.66,296.07,269.66Z"/><path class="cls-1" d="M317.08,268.64h5.23v-34h-5.23V233.4h4.4c3.86,0,6.7-.37,8.54-1.1v9.54c2.57-6.42,5.79-9.54,10.09-9.54,3.59,0,5.88,2,5.88,4.77s-1.48,4.42-3.66,4.42a4.07,4.07,0,0,1-4.14-3.87,5.63,5.63,0,0,1,1.74-3.57,4.61,4.61,0,0,0-1.1-.19c-3.31,0-7,4.68-8.81,13.31v21.47h5.06v1.29h-18Z"/><path class="cls-2" d="M355.93,218a4,4,0,0,1,4,4.11,4,4,0,0,1-4,4,4,4,0,0,1-4-4A4.07,4.07,0,0,1,355.93,218Zm-8.35,16.84v-1.28H352c3.85,0,6.67-.36,8.5-1.1v36.21h5v1.29H347.58v-1.29h5.22V234.81Z"/><path class="cls-1" d="M384.54,269.1c3,0,5.41-1.83,6.51-5h1.39c-1.39,4.49-4.69,7-9.28,7a10.85,10.85,0,0,1-7.53-2.75c-1.84-1.75-2-3.76-2-6.16V234.68h-6.35V233.4c7.26,0,10.93-3.76,12.22-12.2h1.1v12.2h10.18v1.28H380.59V263.5C380.59,267.36,381.51,269.1,384.54,269.1Z"/><path class="cls-2" d="M403,218a4,4,0,0,1,4,4.11,4,4,0,0,1-4,4,4,4,0,0,1-4-4A4.08,4.08,0,0,1,403,218Zm-8.35,16.84v-1.28H399c3.84,0,6.68-.36,8.51-1.1v36.21h5v1.29H394.6v-1.29h5.22V234.81Z"/><path class="cls-1" d="M424.28,258.64c0,7.53,2.65,10.93,9.17,10.93,6.34,0,11.29-4.32,13.22-11.85H448c-2.19,8.54-7.8,13.41-15,13.41-9.17,0-17.15-8.18-17.15-19.19,0-11.38,7.06-19.64,15.69-19.64,8.26,0,15.13,6.33,15.78,15.69H424.28Zm14.13-11.93v-4.32c0-6-2.2-8.8-7.16-8.8-4.68,0-7,3.3-7,10.08v3Z"/><path class="cls-1" d="M452.91,257.36h.92c2.2,8.34,5.59,12.11,11.56,12.11,5.14,0,8.26-3.21,8.26-8.44,0-4.41-3.12-7-8.91-7-7.52,0-11.83-4-11.83-10.46s4.31-11.2,10.19-11.2c5.23,0,8.07,2.39,8.72,2.39s1.1-.56,1.1-1.56a3.48,3.48,0,0,0-.09-.92h1.46V243h-1c-1.37-6.33-4.59-9.45-10-9.45-4.5,0-7.52,2.93-7.52,6.69a6.19,6.19,0,0,0,1.65,4.22c2.29,2.3,6,1.84,10.46,2.48,6.24.92,9.73,5.06,9.73,11.11,0,7.89-4.68,13-11.56,13-6.43,0-9.19-3.49-10.28-3.49s-1.56.73-1.56,2.55h-1.29Z"/><path class="cls-1" d="M38.56,32.74v16.7h-1c-.37-2.31-1.2-3.5-2.39-3.5s-2.38,1-4.32,2.31c-2.31,1.56-4.7,3.2-9.17,3.2-5.45,0-11-2.76-15.51-7.9A24.25,24.25,0,0,1,0,26.78c0-7.54,2.39-14.4,6.57-19.25A20.43,20.43,0,0,1,22,0c4.7,0,7.38,1.79,10.07,3.36,1.41.82,2.44,1.72,3.49,1.72,1.27,0,1.94-1,2-3h1V16.85h-1c-1-9.54-7.69-15.8-15.06-15.8-9.62,0-14.25,8.42-14.25,25.42,0,8.06,1.12,13.73,2.77,16.78,2.45,4.55,6.78,7.16,10.73,7.16,4.78,0,9.84-2.91,13.27-8.12,1.65-2.47,2.24-5.52,2.54-9.55Z"/><path class="cls-1" d="M51.46,41.24c0,6.12,2.15,8.88,7.45,8.88s9.18-3.51,10.75-9.63h1.11C69,47.43,64.43,51.38,58.62,51.38c-7.46,0-13.94-6.63-13.94-15.59,0-9.24,5.73-15.95,12.75-15.95,6.71,0,12.29,5.15,12.82,12.75H51.46Zm11.48-9.7V28.05c0-4.85-1.79-7.17-5.81-7.17-3.8,0-5.67,2.69-5.67,8.2v2.46Z"/><path class="cls-1" d="M73,49.36h4.25V21.78H73V20.73H76.6a19.77,19.77,0,0,0,6.92-.89v6.63C86.28,22,89.64,19.84,94,19.84c5.81,0,9.47,3.5,9.47,9.32v20.2h4.32v1H93.14v-1h4.18V27c0-3.95-.74-5.74-4.11-5.74-3.87,0-7,2.38-9.69,7.3v20.8h4.1v1H73Z"/><path class="cls-1" d="M122.68,49.74a5.51,5.51,0,0,0,5.29-4.1h1.11a7.42,7.42,0,0,1-7.52,5.67,8.79,8.79,0,0,1-6.12-2.24c-1.49-1.42-1.64-3.06-1.64-5V21.78h-5.14V20.73c5.88,0,8.87-3.05,9.91-9.92h.9v9.92h8.28v1.05h-8.28V45.19C119.47,48.32,120.21,49.74,122.68,49.74Z"/><path class="cls-1" d="M138.41,41.24c0,6.12,2.16,8.88,7.45,8.88s9.17-3.51,10.74-9.63h1.12c-1.8,6.94-6.34,10.89-12.15,10.89-7.46,0-13.95-6.63-13.95-15.59,0-9.24,5.74-15.95,12.75-15.95,6.71,0,12.3,5.15,12.82,12.75H138.41Zm11.48-9.7V28.05c0-4.85-1.78-7.17-5.81-7.17-3.81,0-5.67,2.69-5.67,8.2v2.46Z"/><path class="cls-1" d="M160,49.36h4.25V21.78H160V20.73h3.58a19.88,19.88,0,0,0,6.93-.89V27.6c2.09-5.23,4.71-7.76,8.2-7.76,2.91,0,4.78,1.64,4.78,3.87s-1.2,3.58-3,3.58a3.3,3.3,0,0,1-3.36-3.12,4.61,4.61,0,0,1,1.43-2.91,3.63,3.63,0,0,0-.9-.16c-2.68,0-5.66,3.81-7.16,10.82V49.36h4.1v1H160Z"/></g></g></svg>